<svg width="55" height="55" viewBox="0 0 55 55" fill="none" xmlns="http://www.w3.org/2000/svg"><g clip-path="url(#clip0)" fill="#FF8F1E"><path d="M37.583 9.167H.917a.917.917 0 00-.917.917v44c0 .506.41.916.917.916H13.75v-1.833H1.833V11h34.834v15.584H38.5v-16.5a.916.916 0 00-.917-.917z"/><path d="M48.583 9.167h-11a.916.916 0 00-.916.916v16.5H38.5V11h9.167v15.584H49.5v-16.5a.916.916 0 00-.917-.917z"/><path d="M43.083 25.667H13.75a.917.917 0 00-.917.916v27.5c0 .507.41.917.917.917h29.333c.507 0 .917-.41.917-.917v-27.5a.916.916 0 00-.917-.916zm-.916 27.5h-27.5V27.5h27.5v25.667z"/><path d="M54.083 25.667h-11a.916.916 0 00-.916.916v27.5c0 .507.41.917.916.917h11c.507 0 .917-.41.917-.917v-27.5a.916.916 0 00-.917-.916zm-.916 27.5H44V27.5h9.167v25.667z"/><path d="M49.279 47.07c-.347-.406-1.044-.406-1.392 0l-5.5 6.416 1.392 1.193 4.804-5.605 4.804 5.605 1.392-1.193-5.5-6.416zM19.25 0C14.701 0 11 3.702 11 8.25v6.417h1.833V8.25a6.424 6.424 0 016.417-6.417 6.424 6.424 0 016.417 6.417v6.417H27.5V8.25C27.5 3.702 23.799 0 19.25 0z"/><path d="M30.25 0C25.701 0 22 3.702 22 8.25v1.833h1.833V8.25a6.424 6.424 0 016.417-6.417 6.424 6.424 0 016.417 6.417v1.833H38.5V8.25C38.5 3.702 34.8 0 30.25 0zM34.833 31.167v3.666a6.425 6.425 0 01-6.416 6.417A6.424 6.424 0 0122 34.833v-3.666h-1.833v3.666c0 4.55 3.701 8.25 8.25 8.25 4.55 0 8.25-3.7 8.25-8.25v-3.666h-1.834zM49.5 26.584h-1.834v21.083H49.5V26.584zM44 10.083h-1.833v16.5H44v-16.5z"/></g><defs><clipPath id="clip0"><path fill="#fff" d="M0 0h55v55H0z"/></clipPath></defs></svg>
