<svg width="15" height="26" viewBox="0 0 15 26" fill="none" xmlns="http://www.w3.org/2000/svg"><path d="M10.55 6.32c.034-.04.194-.165.823-.165l2.063-.001c.67 0 1.216-.545 1.216-1.214V1.342c0-.669-.544-1.214-1.214-1.215L10.374.122c-1.891 0-3.499.623-4.649 1.8-1.145 1.173-1.75 2.81-1.75 4.734v1.941H1.63c-.671 0-1.217.545-1.217 1.214v3.875c0 .67.546 1.215 1.217 1.215h2.344v9.044c0 .67.546 1.214 1.217 1.214h4.017c.67 0 1.217-.545 1.217-1.214V14.9h2.865c.67 0 1.216-.545 1.216-1.214l.002-3.875a1.218 1.218 0 00-1.228-1.215h-2.855V7.064c0-.5.067-.68.124-.745z" fill="#FF8F1E"/></svg>