<svg width="55" height="55" viewBox="0 0 55 55" fill="none" xmlns="http://www.w3.org/2000/svg"><g clip-path="url(#clip0)" fill="#FF8F1E"><path d="M47.667 19.25v33.917H7.333V19.25H5.5v34.834c0 .506.41.916.917.916h42.166c.507 0 .917-.41.917-.916V19.25h-1.833z"/><path d="M52.25 10.084H2.75a.917.917 0 00-.917.916v8.25c0 .506.411.917.917.917h12.834v-1.834H3.667v-6.416h47.666v6.416H39.417v1.834H52.25c.507 0 .917-.41.917-.917V11a.916.916 0 00-.917-.916z"/><path d="M31.166 10.084h-7.333a.917.917 0 00-.916.916v43.084c0 .506.41.916.916.916h7.334c.506 0 .916-.41.916-.916V11a.916.916 0 00-.916-.916zm-.916 43.083h-5.5v-41.25h5.5v41.25z"/><path d="M28.149 10.353l-7.793-7.82A8.72 8.72 0 0014.238 0h-.03A5.965 5.965 0 008.25 5.958a5.965 5.965 0 005.958 5.959H27.5a.917.917 0 00.649-1.564zm-13.94-.27a4.13 4.13 0 01-4.126-4.125 4.13 4.13 0 014.129-4.125h.023c1.797 0 3.554.727 4.824 1.995l6.234 6.256H14.208z"/><path d="M40.795 0c-2.291.007-4.53.915-6.152 2.534l-7.792 7.819a.916.916 0 00.65 1.564h13.29a5.965 5.965 0 005.96-5.959A5.964 5.964 0 0040.794 0zm-.003 10.083H29.707L35.94 3.83a6.876 6.876 0 014.829-1.997c2.267-.012 4.148 1.842 4.148 4.125a4.13 4.13 0 01-4.125 4.125zM23.028 16.981l-5.58 10.362-1.043-2.087a.917.917 0 00-1-.489l-2.575.515 8.128-13.817-1.58-.93-9.167 15.583a.915.915 0 00.97 1.363l3.896-.779 1.52 3.04a.918.918 0 00.806.508h.014a.92.92 0 00.808-.483l6.417-11.917-1.614-.869z"/><path d="M23.52 10.31l-6.808-5.956a2.744 2.744 0 00-1.817-.688h-.228a2.752 2.752 0 00-2.75 2.746 2.727 2.727 0 001.037 2.166l3.887 3.135a.913.913 0 00.575.203h5.5a.916.916 0 00.604-1.606zm-5.78-.227l-3.642-2.937a.914.914 0 01-.348-.73c0-.505.411-.916.916-.916h.226c.224 0 .44.081.61.23l4.975 4.353H17.74zM40.333 3.666h-.225c-.672 0-1.317.244-1.818.686l-6.81 5.958a.918.918 0 00.603 1.607h5.5c.21 0 .413-.072.576-.204l3.88-3.13a2.732 2.732 0 001.044-2.166 2.753 2.753 0 00-2.75-2.75zm.561 3.486l-3.634 2.931h-2.737L39.5 5.73a.922.922 0 01.61-.229h.223c.506 0 .917.411.917.921a.916.916 0 01-.356.73z"/><path d="M44.792 26.12l-9.167-15.584-1.581.93 8.128 13.818-2.575-.516a.921.921 0 00-1 .489l-1.044 2.087-5.579-10.362-1.615.87 6.416 11.916a.917.917 0 001.63-.024l1.52-3.04 3.896.778a.915.915 0 00.97-1.362z"/></g><defs><clipPath id="clip0"><path fill="#fff" d="M0 0h55v55H0z"/></clipPath></defs></svg>
