<svg width="20" height="20" viewBox="0 0 20 20" fill="none" xmlns="http://www.w3.org/2000/svg"><g clip-path="url(#clip0)" fill="#FF8F1E" stroke="#FF8F1E" stroke-width=".25"><path d="M10.087 18.048l4.84-8.08-4.84 8.08zm0 0L5.12 10.045a5.727 5.727 0 01-.863-3.014A5.754 5.754 0 0110 1.29c3.162 0 5.738 2.58 5.738 5.742a5.73 5.73 0 01-.811 2.937l-4.84 8.08zm-6.175-7.254h0l5.582 8.995a.71.71 0 00.604.336h.005a.71.71 0 00.605-.346s0 0 0 0l5.439-9.081h0a7.147 7.147 0 001.01-3.667A7.164 7.164 0 0010-.125a7.164 7.164 0 00-7.156 7.156c0 1.333.369 2.634 1.068 3.763z"/><path d="M10 3.39a3.645 3.645 0 00-3.64 3.641 3.636 3.636 0 003.64 3.64c2.06 0 3.64-1.668 3.64-3.64A3.645 3.645 0 0010 3.391zm0 5.868c-1.23 0-2.227-1-2.227-2.227A2.235 2.235 0 0110 4.805a2.232 2.232 0 012.223 2.226c0 1.21-.974 2.227-2.223 2.227z"/></g><defs><clipPath id="clip0"><path fill="#fff" d="M0 0h20v20H0z"/></clipPath></defs></svg>
