<svg width="17" height="17" viewBox="0 0 17 17" fill="none" xmlns="http://www.w3.org/2000/svg"><path d="M16.563 12.539l-2.114-2.114a1.496 1.496 0 00-2.113 0l-.96.96a1.133 1.133 0 01-1.601.001L5.61 7.219a1.131 1.131 0 010-1.601l.96-.96c.58-.58.589-1.526 0-2.115L4.458.437A1.496 1.496 0 002.346.436l-.77.763a5.395 5.395 0 000 7.62l6.597 6.601a5.386 5.386 0 007.621 0l.769-.768a1.496 1.496 0 000-2.113zM3.049 1.142a.499.499 0 01.705 0l2.113 2.106a.498.498 0 11-.704.705L3.048 1.838a.491.491 0 01.001-.696zm5.829 13.574l-6.597-6.6A4.376 4.376 0 011.083 4.11c.236-1.123 1.623-1.206 2.435-.394.728.728.643 1.977.785 2.997.062.442.263.869.603 1.21L9.07 12.09c.34.34.766.542 1.208.604 1.021.142 2.27.057 2.999.785.811.812.73 2.2-.393 2.437a4.367 4.367 0 01-4.006-1.2zm6.98-.768a.498.498 0 01-.704 0l-2.114-2.114a.498.498 0 11.705-.704l2.113 2.113a.499.499 0 010 .704z" fill="#FFFFFF"/></svg>
