<svg width="17" height="17" viewBox="0 0 17 17" fill="none" xmlns="http://www.w3.org/2000/svg"><path d="M16.594 3.226a1.676 1.676 0 00-1.278-.559H3.098l-.123-.913C2.842.771 2.151 0 1.401 0H.503A.5.5 0 000 .498a.5.5 0 00.503.498H1.4c.161 0 .503.338.577.89l1.44 10.692c.063.472.307.913.688 1.243.282.245.616.408.965.476-.142.259-.223.556-.223.871 0 1.01.83 1.832 1.85 1.832s1.85-.822 1.85-1.832c0-.3-.075-.585-.205-.835h2.635c-.13.25-.205.534-.205.835 0 1.01.83 1.832 1.85 1.832s1.85-.822 1.85-1.832c0-.3-.074-.585-.205-.835h1.318a.5.5 0 00.503-.498.5.5 0 00-.503-.498H5.44c-.492 0-.962-.408-1.027-.89l-.105-.782h9.93c.48 0 .954-.181 1.335-.511.38-.33.625-.771.688-1.243l.722-5.358a1.641 1.641 0 00-.39-1.327zM7.54 15.168a.84.84 0 01-.843.836.84.84 0 01-.844-.836.84.84 0 01.844-.835.84.84 0 01.843.835zm5.926 0a.84.84 0 01-.844.836.84.84 0 01-.844-.836.84.84 0 01.844-.835.84.84 0 01.844.835zm2.37-11.286c.124.14.178.332.15.54l-.303 2.246h-3.422l.202-3.005h2.852a.68.68 0 01.52.219zm-7.142 6.787l-.202-3.005h2.694l-.202 3.005h-2.29zm-.27-4l-.202-3.006h3.233l-.202 3.005H8.425zm-1.21-3.006l.202 3.005h-3.78l-.405-3.005h3.983zM3.771 7.664h3.713l.203 3.005H4.175l-.404-3.005zm10.468 3.005h-2.246l.202-3.005h3.355l-.285 2.115c-.065.483-.535.89-1.026.89z" fill="#FF8F1E"/></svg>
