<svg width="24" height="24" viewBox="0 0 24 24" fill="none" xmlns="http://www.w3.org/2000/svg"><path d="M16.855.022h-10.6A6.263 6.263 0 00.001 6.278v10.6a6.263 6.263 0 006.256 6.256h10.6a6.263 6.263 0 006.255-6.256v-10.6A6.263 6.263 0 0016.855.022zm-5.3 17.875a6.326 6.326 0 01-6.319-6.319 6.326 6.326 0 016.32-6.32 6.326 6.326 0 016.319 6.32 6.326 6.326 0 01-6.32 6.32zm6.47-11.148a1.87 1.87 0 01-1.866-1.867 1.87 1.87 0 011.867-1.868 1.87 1.87 0 011.867 1.868 1.87 1.87 0 01-1.867 1.867z" fill="#FF8F1E"/><path d="M11.556 6.614A4.97 4.97 0 006.59 11.58a4.97 4.97 0 004.965 4.964 4.97 4.97 0 004.964-4.964 4.97 4.97 0 00-4.964-4.965zM18.026 4.37a.513.513 0 10.001 1.026.513.513 0 000-1.026z" fill="#FF8F1E"/></svg>