<svg width="55" height="55" viewBox="0 0 55 55" fill="none" xmlns="http://www.w3.org/2000/svg"><path d="M12.833 36.208a5.506 5.506 0 00-5.5 5.5c0 3.033 2.467 5.5 5.5 5.5 3.034 0 5.5-2.467 5.5-5.5s-2.467-5.5-5.5-5.5zm0 9.167a3.67 3.67 0 01-3.666-3.667 3.67 3.67 0 013.666-3.667 3.67 3.67 0 013.667 3.667 3.67 3.67 0 01-3.667 3.667zM44 36.208a5.506 5.506 0 00-5.5 5.5c0 3.033 2.467 5.5 5.5 5.5s5.5-2.467 5.5-5.5-2.467-5.5-5.5-5.5zm0 9.167a3.67 3.67 0 01-3.667-3.667A3.67 3.67 0 0144 38.04a3.67 3.67 0 013.667 3.667A3.67 3.67 0 0144 45.375z" fill="#FF8F1E"/><path d="M54.854 31.129l-8.25-12.833a.917.917 0 00-.77-.421H35.75a.916.916 0 00-.917.916v22.917c0 .507.41.917.917.917h3.666V40.79h-2.75V19.708h8.667l7.834 12.186v8.898h-4.584v1.833h5.5c.507 0 .917-.41.917-.917V31.625a.914.914 0 00-.146-.496z" fill="#FF8F1E"/><path d="M40.334 29.791v-6.416h7.333V21.54h-8.25a.916.916 0 00-.917.917v8.25c0 .507.41.917.917.917h13.75V29.79H40.333zM35.75 11.458H.917a.917.917 0 00-.917.917v29.333c0 .507.41.917.917.917H8.25V40.79H1.833v-27.5h33v27.5H17.417v1.834H35.75c.507 0 .917-.41.917-.917V12.375a.916.916 0 00-.917-.917z" fill="#FF8F1E"/><path d="M6.417 37.125h-5.5v1.834h5.5v-1.834zM34.833 37.125H19.25v1.834h15.583v-1.834zM54.083 37.125h-3.666v1.834h3.666v-1.834zM35.75 15.125H3.666v1.834H35.75v-1.834zM13.75 40.791h-1.834v1.834h1.834V40.79zM44.917 40.791h-1.834v1.834h1.834V40.79zM16.5 7.792H3.666v1.833H16.5V7.792zM1.833 7.792H0v1.833h1.833V7.792z" fill="#FF8F1E"/></svg>
