<svg width="26" height="15" viewBox="0 0 26 15" fill="none" xmlns="http://www.w3.org/2000/svg"><path fill-rule="evenodd" clip-rule="evenodd" d="M22.377 9.356c.862.842 1.772 1.634 2.546 2.56.342.413.665.838.913 1.316.35.68.033 1.427-.577 1.468l-3.787-.002c-.977.081-1.757-.312-2.412-.98-.524-.534-1.01-1.103-1.514-1.655a3.587 3.587 0 00-.682-.606c-.517-.336-.966-.233-1.261.307-.301.548-.37 1.155-.399 1.767-.04.892-.31 1.126-1.206 1.167-1.915.09-3.732-.2-5.42-1.165-1.488-.852-2.642-2.054-3.647-3.415-1.956-2.65-3.454-5.562-4.8-8.555C-.172.888.05.526.794.513 2.03.49 3.265.492 4.502.513c.503.007.835.295 1.029.77.668 1.644 1.487 3.208 2.513 4.657.274.386.553.772.95 1.044.439.3.773.2.98-.288.131-.31.188-.645.218-.977.098-1.143.11-2.285-.06-3.424-.106-.711-.507-1.171-1.216-1.306-.362-.068-.308-.203-.133-.41C9.087.222 9.373 0 9.945 0h4.28c.674.133.824.436.916 1.114l.004 4.755c-.008.262.131 1.041.604 1.215.378.124.628-.179.855-.419 1.025-1.088 1.756-2.373 2.41-3.704.29-.586.54-1.194.78-1.801.18-.45.46-.672.968-.663l4.12.004c.122 0 .246.002.364.022.695.118.885.417.67 1.095-.337 1.064-.995 1.95-1.637 2.84-.688.951-1.422 1.87-2.104 2.826-.626.873-.576 1.313.202 2.072z" fill="#FF8F1E"/></svg>